<?xml version="1.0" standalone="no"?>
<!DOCTYPE svg PUBLIC "-//W3C//DTD SVG 20010904//EN"
 "http://www.w3.org/TR/2001/REC-SVG-20010904/DTD/svg10.dtd">
<svg version="1.0" xmlns="http://www.w3.org/2000/svg"
 width="1536.000000pt" height="1536.000000pt" viewBox="0 0 1536.000000 1536.000000"
 preserveAspectRatio="xMidYMid meet">

<!-- Define radial gradient -->
<defs>
  <radialGradient id="fadeGradient" cx="50%" cy="50%" r="50%" fx="50%" fy="50%">
    <stop offset="0%" style="stop-color:#ffffff;stop-opacity:0.97" />
    <stop offset="50%" style="stop-color:#f8f8f8;stop-opacity:0.4" />
    <stop offset="100%" style="stop-color:#f0f0f0;stop-opacity:0" />
  </radialGradient>
</defs>

<!-- Add circular background with gradient -->
<circle cx="768" cy="768" r="768" fill="url(#fadeGradient)"/>

<g transform="translate(0.000000,1536.000000) scale(0.075000,-0.075000)"
fill="#000000" stroke="none">
<path d="M12670 15058 c-35 -5 -128 -31 -205 -58 -77 -27 -252 -87 -388 -134
-282 -97 -338 -124 -440 -211 -77 -66 -113 -107 -187 -214 l-45 -65 -150 -67
c-82 -36 -271 -120 -420 -186 -696 -311 -1971 -875 -2325 -1028 -457 -198
-470 -205 -537 -278 -22 -23 -50 -61 -63 -84 -22 -39 -31 -45 -149 -93 -230
-94 -279 -120 -329 -175 -89 -97 -148 -247 -171 -429 -6 -50 -14 -93 -18 -97
-8 -8 -302 -127 -577 -234 -183 -71 -217 -97 -246 -193 -47 -152 -33 -384 36
-603 45 -141 94 -241 171 -345 90 -120 182 -183 269 -184 22 0 103 15 180 34
76 19 238 55 359 81 l221 47 109 -109 c86 -85 125 -117 180 -144 66 -32 75
-34 180 -34 60 0 171 9 246 19 l137 19 88 -29 c107 -34 162 -36 442 -10 112
10 205 16 208 13 3 -2 -37 -83 -89 -178 -52 -96 -151 -277 -219 -404 -69 -126
-145 -265 -168 -307 l-44 -78 -1446 0 c-1426 0 -1447 0 -1465 -20 -20 -23 -23
-63 -5 -85 11 -13 232 -15 1897 -15 l1885 0 29 -29 c36 -36 38 -79 6 -109
l-23 -22 -1888 -2 c-1855 -3 -1888 -3 -1902 -22 -20 -28 -17 -63 6 -86 20 -20
33 -20 1719 -20 l1699 0 4 -99 c3 -87 7 -103 31 -139 15 -23 45 -51 67 -62 40
-20 52 -20 828 -18 l788 3 37 25 c20 13 46 43 59 65 20 34 23 53 22 133 l-1
92 1649 0 1649 0 24 25 c32 31 32 58 -1 84 l-27 21 -1819 0 -1819 0 -24 25
c-35 34 -34 86 1 114 27 21 28 21 1198 21 1044 0 1174 2 1194 16 27 19 29 64
4 87 -17 16 -87 17 -800 17 l-781 0 -39 68 c-39 68 -167 307 -285 532 -36 69
-93 177 -127 240 -97 182 -134 259 -130 263 3 2 250 23 550 46 300 23 582 46
627 50 62 5 86 4 100 -7 95 -71 269 -148 383 -168 116 -21 171 -17 427 26 131
22 294 47 363 54 69 8 161 26 205 40 411 132 710 601 824 1291 54 326 56 716
5 1085 -33 242 -108 565 -175 757 -229 653 -618 1182 -1013 1376 -201 99 -379
132 -566 105z m296 -138 c99 -25 277 -112 369 -182 92 -69 255 -234 327 -329
404 -538 637 -1244 664 -2009 21 -591 -112 -1158 -354 -1500 -105 -149 -266
-280 -407 -331 -92 -33 -257 -38 -364 -10 -285 72 -561 306 -804 682 -250 389
-433 892 -507 1393 -38 257 -44 352 -44 601 2 558 108 987 326 1315 134 203
321 344 501 380 79 15 210 11 293 -10z m-860 -225 c-145 -189 -273 -490 -330
-777 -53 -259 -61 -351 -61 -693 0 -341 9 -450 61 -735 165 -905 636 -1704
1164 -1975 l55 -29 -55 -13 c-30 -8 -109 -17 -175 -20 -103 -5 -131 -3 -198
16 -307 84 -628 398 -876 857 -448 825 -567 1923 -293 2689 76 212 163 369
270 486 89 97 148 132 318 193 82 29 150 52 152 50 2 -1 -13 -23 -32 -49z
m-801 -532 c-55 -136 -127 -412 -157 -604 -19 -126 -22 -184 -22 -464 -1 -327
6 -425 45 -655 24 -145 99 -449 143 -583 148 -450 410 -910 663 -1164 l61 -62
-51 -6 c-29 -3 -439 -37 -912 -75 -1432 -117 -1820 -149 -2060 -171 -126 -12
-255 -19 -286 -17 -213 15 -487 314 -654 712 -192 458 -245 955 -145 1353 45
178 114 296 204 352 33 20 211 101 581 261 99 42 356 155 570 250 215 95 449
198 520 230 719 318 1159 513 1375 611 117 53 136 58 125 32z m-3506 -1712
c-70 -274 -63 -673 18 -1016 88 -378 273 -749 481 -968 31 -31 53 -59 51 -61
-8 -7 -176 -26 -230 -26 -84 0 -146 36 -259 149 -300 301 -480 782 -480 1279
0 197 30 364 86 474 41 81 82 118 179 163 50 23 106 49 125 58 19 8 38 16 41
16 3 1 -2 -30 -12 -68z m-555 -753 c27 -352 131 -708 280 -953 26 -43 44 -81
39 -85 -4 -4 -77 -22 -161 -39 -146 -29 -155 -30 -185 -14 -158 81 -304 333
-352 607 -19 113 -19 217 1 314 23 110 33 125 106 156 132 55 253 104 259 105
4 1 10 -41 13 -91z m-511 -150 c-13 -69 -9 -307 6 -383 43 -220 147 -432 277
-566 l55 -55 -78 -17 c-107 -23 -114 -22 -170 22 -134 105 -246 335 -288 591
-22 128 -16 267 13 333 18 40 28 49 94 81 96 46 100 46 91 -6z m4199 -1426
c76 -147 181 -348 234 -447 52 -99 118 -222 145 -272 l49 -93 -115 0 -114 0
-25 51 c-18 34 -26 67 -26 100 0 65 -30 122 -81 156 -38 25 -54 53 -220 391
-98 201 -179 366 -179 368 0 3 74 10 145 12 l50 2 137 -268z m-270 -177 l150
-300 -173 -3 c-95 -1 -177 2 -181 6 -11 11 -31 699 -22 714 8 13 41 -48 226
-417z m-359 113 c4 -161 10 -321 13 -355 l7 -63 -182 0 -181 0 5 223 c3 122 8
277 11 345 l6 122 67 1 c36 1 95 5 131 9 36 4 77 8 91 8 l26 2 6 -292z m-466
-50 c-4 -172 -9 -325 -13 -340 l-6 -27 -199 -3 c-110 -2 -199 -2 -199 -2 0 3
304 573 331 621 30 53 40 61 73 62 18 1 19 -9 13 -311z m-217 288 c0 -2 -18
-36 -41 -77 -23 -41 -138 -262 -256 -492 -118 -229 -218 -419 -221 -421 -4 -2
-55 -1 -114 3 l-106 6 32 55 c18 30 75 134 126 230 52 96 127 236 167 310 40
74 100 188 133 252 l59 116 53 6 c29 3 71 8 93 9 22 2 48 4 58 5 9 1 17 0 17
-2z m1314 -808 c11 -16 16 -46 16 -105 l0 -83 -34 0 c-32 0 -34 1 -39 46 -2
25 -10 51 -16 57 -9 9 -83 12 -252 12 l-241 0 -19 -24 c-19 -23 -20 -39 -17
-294 l3 -269 24 -19 c21 -17 42 -19 249 -19 252 0 262 2 262 67 0 31 2 33 35
33 l35 0 0 -84 c0 -59 -4 -87 -14 -95 -10 -8 -217 -11 -767 -12 -664 0 -754 2
-768 16 -10 10 -17 40 -19 86 -5 78 1 89 51 89 24 0 27 -4 27 -32 0 -17 7 -40
17 -50 15 -16 36 -18 245 -18 l229 0 24 25 25 24 0 255 c0 166 -4 264 -11 279
-19 42 -47 47 -273 47 -243 0 -250 -2 -250 -69 -1 -39 -2 -41 -33 -41 l-33 0
0 84 c0 64 4 88 16 100 14 14 97 16 764 16 l749 0 15 -22z m-1074 -383 l0
-185 -89 0 -89 0 38 38 c92 91 67 251 -48 312 l-37 19 113 1 112 0 0 -185z
m795 169 c-11 -8 -25 -18 -31 -22 -6 -4 -23 -25 -38 -46 -21 -31 -26 -51 -26
-98 0 -73 17 -114 64 -156 l37 -32 -101 0 -100 0 0 185 0 185 108 0 c98 -1
105 -2 87 -16z"/>
<path d="M12777 14600 c-127 -20 -259 -92 -368 -200 -247 -247 -373 -626 -386
-1162 -8 -330 23 -611 104 -933 64 -255 192 -573 310 -769 113 -188 256 -356
387 -458 161 -125 328 -190 491 -191 101 -1 169 15 270 63 298 142 501 522
571 1065 21 160 24 532 6 690 -43 378 -144 739 -292 1040 -131 268 -248 435
-418 596 -212 201 -453 293 -675 259z m235 -146 c208 -50 450 -268 629 -566
210 -349 347 -793 390 -1262 15 -161 7 -500 -16 -655 -61 -425 -228 -748 -456
-884 -95 -56 -155 -70 -268 -64 -176 9 -299 73 -475 249 -66 65 -117 120 -114
123 2 3 51 10 107 15 359 37 673 222 856 504 152 234 209 430 209 716 0 142
-4 180 -26 275 -88 377 -303 673 -611 843 -118 65 -200 96 -329 123 -192 39
-458 14 -632 -60 -36 -16 -47 -18 -43 -7 3 7 15 47 27 87 28 93 105 243 169
330 123 167 319 268 486 251 22 -2 66 -10 97 -18z m-142 -708 c410 -88 730
-406 841 -836 50 -191 48 -398 -6 -597 -79 -296 -292 -552 -562 -675 -144 -65
-341 -101 -495 -90 l-66 4 -64 117 c-124 228 -220 482 -276 731 -73 318 -98
548 -89 819 8 238 30 389 60 413 36 29 196 89 287 108 104 23 280 25 370 6z"/>
<path d="M12699 13236 c-83 -34 -124 -62 -173 -118 -143 -164 -182 -429 -102
-684 70 -218 235 -374 429 -404 230 -36 436 120 503 380 25 97 23 264 -5 365
-36 131 -91 238 -91 177 0 -39 -57 -108 -111 -136 -92 -46 -179 -28 -251 52
-91 100 -69 262 44 338 l47 32 -44 11 c-75 19 -183 13 -246 -13z"/>
<path d="M10388 12671 c-76 -25 -141 -122 -153 -231 -13 -106 30 -245 101
-329 40 -48 113 -81 177 -81 222 0 282 353 94 557 -65 71 -153 105 -219 84z"/>
<path d="M8900 12421 c-109 -35 -169 -122 -190 -272 -13 -90 5 -210 44 -294
29 -65 114 -158 171 -188 61 -32 156 -30 216 5 88 52 141 162 142 298 1 181
-91 363 -216 426 -53 27 -127 38 -167 25z"/>
<path d="M10326 11835 c-198 -97 -377 -131 -641 -120 -299 13 -272 15 -311
-27 -29 -32 -34 -45 -34 -86 0 -112 73 -256 190 -373 66 -67 102 -94 160 -122
310 -148 656 -41 807 249 59 113 77 187 77 324 1 124 -10 162 -56 194 -36 26
-77 17 -192 -39z m-411 -390 c93 -24 176 -69 246 -134 62 -58 63 -60 44 -75
-34 -26 -121 -55 -187 -62 -135 -13 -284 42 -394 147 -35 34 -64 68 -64 75 0
50 228 81 355 49z"/>
<path d="M13437 9282 c-22 -24 -21 -65 1 -86 17 -15 71 -16 622 -14 l603 3 20
26 c17 24 18 30 5 55 l-13 29 -611 3 c-582 2 -612 1 -627 -16z"/>
<path d="M4595 6923 c-11 -3 -30 -14 -42 -26 l-23 -20 0 -433 0 -433 26 -20
c39 -31 107 -29 139 4 25 24 25 27 25 200 0 192 7 225 55 263 38 30 84 37 129
18 58 -24 66 -55 66 -261 0 -178 5 -206 39 -232 25 -19 95 -16 123 7 22 17 26
29 31 107 9 145 -6 382 -27 423 -71 138 -232 175 -366 85 l-50 -34 0 140 c0
178 -8 198 -90 214 -8 1 -24 0 -35 -2z"/>
<path d="M8253 6918 c-64 -17 -63 -8 -63 -476 l0 -423 25 -24 c45 -46 155 -25
155 30 0 21 6 19 48 -14 50 -39 102 -54 175 -49 113 7 210 75 264 186 25 51
28 67 28 162 0 92 -3 112 -26 160 -57 123 -142 180 -266 180 -79 0 -126 -14
-180 -56 l-33 -25 0 149 c0 128 -3 153 -17 171 -23 28 -70 40 -110 29z m365
-455 c55 -41 67 -69 67 -152 0 -70 -3 -81 -29 -115 -49 -65 -124 -83 -195 -46
-91 46 -109 209 -33 294 43 48 138 58 190 19z"/>
<path d="M9083 6919 c-62 -18 -63 -23 -63 -469 0 -456 1 -460 68 -481 50 -15
91 3 111 47 l13 31 27 -25 c74 -70 196 -83 299 -32 71 36 115 82 151 160 23
48 26 68 26 160 0 99 -2 109 -33 172 -55 112 -142 168 -262 168 -67 0 -113
-14 -157 -46 -17 -13 -34 -24 -36 -24 -2 0 -6 65 -9 145 -4 139 -5 147 -29
169 -29 29 -64 37 -106 25z m367 -458 c37 -25 70 -97 70 -151 0 -54 -33 -125
-72 -153 -14 -11 -48 -22 -75 -24 -58 -6 -108 23 -135 77 -22 42 -24 137 -4
183 36 85 144 119 216 68z"/>
<path d="M9925 6923 c-11 -3 -29 -14 -41 -24 -20 -19 -21 -33 -27 -305 -4
-158 -4 -352 0 -432 6 -134 8 -148 29 -169 33 -33 112 -33 143 1 l23 25 -1
416 c-1 229 -6 427 -11 440 -13 35 -69 58 -115 48z"/>
<path d="M12425 6895 l-25 -24 0 -421 c0 -283 4 -428 11 -442 14 -26 67 -48
102 -41 29 6 67 46 67 71 0 12 7 9 28 -11 45 -43 109 -67 182 -67 155 0 278
115 310 288 29 163 -64 342 -201 387 -97 33 -200 17 -276 -41 l-33 -25 0 141
c0 187 -11 210 -101 210 -29 0 -47 -7 -64 -25z m404 -433 c14 -10 37 -34 49
-53 21 -29 23 -44 20 -106 -4 -77 -18 -108 -72 -147 -38 -29 -124 -29 -162 0
-57 42 -69 69 -69 154 0 93 16 122 86 158 51 27 107 25 148 -6z"/>
<path d="M11651 6899 c-113 -22 -251 -119 -308 -217 -58 -98 -79 -253 -52
-371 24 -105 106 -221 196 -279 158 -100 387 -101 543 -2 139 89 220 237 220
404 0 185 -85 333 -239 415 -101 53 -243 73 -360 50z m244 -203 c101 -50 149
-134 149 -261 1 -63 -4 -90 -21 -125 -55 -112 -146 -173 -257 -174 -80 0 -130
18 -184 67 -206 191 -76 541 196 523 40 -2 81 -13 117 -30z"/>
<path d="M6435 6875 l-25 -24 0 -416 0 -416 25 -24 c31 -32 101 -35 136 -6 23
18 24 26 29 188 l5 168 208 3 207 2 0 -159 c0 -88 3 -167 6 -176 18 -46 116
-59 161 -21 l28 24 0 405 c-1 434 -2 443 -52 466 -49 22 -111 7 -132 -33 -6
-12 -12 -86 -13 -171 l-3 -150 -207 -3 -208 -2 0 156 0 156 -29 29 c-39 39
-100 41 -136 4z"/>
<path d="M3655 6865 c-17 -16 -25 -35 -25 -60 0 -25 8 -44 25 -60 23 -24 30
-25 145 -25 l120 0 0 -322 c0 -338 5 -386 43 -413 35 -24 103 -20 132 10 l25
24 0 351 0 350 128 0 c125 0 129 1 152 25 16 17 24 37 24 60 0 23 -8 43 -24
60 l-23 25 -349 0 -349 0 -24 -25z"/>
<path d="M5561 6650 c-104 -22 -196 -92 -242 -185 -21 -44 -24 -64 -24 -160 0
-125 13 -161 86 -240 114 -124 378 -141 504 -32 47 40 53 88 16 119 -31 24
-50 23 -124 -8 -76 -33 -155 -36 -210 -10 -37 18 -87 77 -87 103 0 10 49 13
218 13 203 0 220 1 236 19 31 35 22 139 -20 222 -59 118 -214 187 -353 159z
m140 -173 c37 -25 79 -91 65 -104 -4 -4 -70 -10 -147 -11 -132 -4 -139 -3
-139 16 0 30 42 85 80 104 48 25 100 23 141 -5z"/>
<path d="M10467 6650 c-250 -43 -367 -332 -220 -547 85 -127 263 -176 437
-123 115 36 170 116 116 170 -26 26 -48 25 -123 -7 -87 -38 -177 -39 -233 -2
-23 15 -48 42 -57 60 l-16 34 218 5 c261 6 261 6 261 101 0 201 -177 344 -383
309z m133 -173 c40 -26 75 -81 66 -102 -5 -13 -28 -15 -148 -13 -137 3 -143 4
-140 23 4 29 34 67 72 93 44 29 106 29 150 -1z"/>
<path d="M14149 6650 c-108 -18 -194 -82 -245 -182 -23 -43 -28 -70 -32 -143
-5 -122 19 -187 98 -267 48 -48 68 -60 130 -79 132 -40 299 -11 375 65 33 33
34 88 3 110 -30 22 -49 20 -117 -9 -119 -50 -198 -42 -263 26 -64 67 -65 67
176 71 255 4 256 4 256 99 0 114 -65 226 -159 274 -39 19 -150 48 -170 44 -3
-1 -27 -5 -52 -9z m131 -172 c43 -30 79 -96 59 -109 -8 -5 -74 -9 -146 -9
-148 0 -147 0 -110 64 41 73 133 97 197 54z"/>
<path d="M13362 6629 c-98 -38 -153 -126 -138 -221 14 -87 85 -141 227 -172
126 -28 167 -67 118 -112 -33 -30 -119 -24 -200 15 -76 36 -107 39 -140 12
-17 -13 -23 -29 -23 -56 0 -31 6 -43 35 -67 65 -55 215 -87 320 -68 132 24
208 93 217 195 6 68 -9 104 -58 148 -40 37 -78 53 -209 89 -99 27 -124 50 -93
88 27 33 116 31 184 -4 75 -39 118 -34 144 16 8 16 12 37 9 48 -10 32 -72 78
-127 95 -74 22 -200 19 -266 -6z"/>
<path d="M14953 6629 c-24 -12 -56 -39 -72 -60 l-28 -39 -7 39 c-4 25 -15 46
-28 55 -32 23 -100 20 -132 -5 l-26 -20 0 -290 0 -290 25 -24 c18 -19 35 -25
67 -25 85 1 98 29 98 212 0 129 2 148 23 188 28 56 71 85 138 94 69 9 85 19
99 60 14 44 4 81 -27 106 -33 26 -77 25 -130 -1z"/>
<path d="M15203 6630 c-40 -24 -50 -60 -30 -108 31 -75 207 -473 222 -503 27
-51 111 -74 171 -47 21 10 42 44 96 158 110 229 181 402 182 437 0 64 -68 99
-137 70 -43 -19 -59 -48 -142 -265 l-58 -152 -68 167 c-86 211 -97 231 -130
249 -38 19 -68 18 -106 -6z"/>
<path d="M16123 6631 c-95 -32 -166 -105 -199 -203 -12 -37 -15 -74 -12 -142
3 -77 8 -99 33 -144 69 -126 190 -188 348 -180 173 9 300 115 227 188 -26 26
-44 25 -119 -5 -123 -50 -208 -41 -271 31 -54 62 -54 63 186 66 l216 3 20 25
c17 21 20 35 15 88 -10 125 -92 241 -195 276 -62 21 -183 20 -249 -3z m203
-156 c29 -19 64 -72 64 -97 0 -16 -14 -18 -145 -18 -162 0 -165 2 -125 68 40
65 143 89 206 47z"/>
<path d="M16753 6643 c-13 -2 -32 -16 -43 -30 -19 -24 -20 -40 -20 -310 l0
-284 25 -24 c18 -19 35 -25 70 -25 35 0 52 6 70 25 24 23 25 30 25 143 0 239
33 301 170 323 85 13 105 33 105 100 0 42 -4 54 -25 71 -51 41 -177 0 -218
-73 -22 -37 -32 -37 -32 0 0 56 -62 97 -127 84z"/>
<path d="M7414 6615 l-25 -25 3 -233 c3 -249 6 -264 62 -325 80 -89 251 -92
338 -8 l36 35 11 -31 c15 -42 38 -57 89 -58 32 0 49 6 67 25 l25 24 0 286 0
286 -25 24 c-18 19 -35 25 -70 25 -35 0 -52 -6 -70 -25 -25 -24 -25 -27 -25
-195 0 -193 -8 -227 -62 -260 -40 -24 -105 -26 -137 -4 -43 31 -51 70 -51 259
0 173 0 176 -25 200 -35 35 -106 35 -141 0z"/>
</g>
</svg>
